<svg xmlns="http://www.w3.org/2000/svg" version="1.1" xmlns:xlink="http://www.w3.org/1999/xlink" xmlns:svgjs="http://svgjs.dev/svgjs" width="2000" height="1500" viewBox="0 0 2000 1500"><rect width="2000" height="1500" fill="#915eff"></rect><g transform="matrix(0.75,0,0,0.75,249.36094489795926,277.8825910931174)"><svg viewBox="0 0 392 247" data-background-color="#915eff" preserveAspectRatio="xMidYMid meet" height="1260" width="2000" xmlns="http://www.w3.org/2000/svg" xmlns:xlink="http://www.w3.org/1999/xlink"><g id="tight-bounds" transform="matrix(1,0,0,1,0.16700639999999112,-0.09999999999999432)"><svg viewBox="0 0 391.6659872 247.2" height="247.2" width="391.6659872"><g><svg viewBox="0 0 391.6659872 247.2" height="247.2" width="391.6659872"><g><svg viewBox="0 0 206 247.2" height="247.2" width="206"><g id="textblocktransform"><svg viewBox="0 0 206 247.2" height="247.2" width="206" id="textblock"><g><svg viewBox="0 0 206 247.2" height="247.2" width="206"><g transform="matrix(1,0,0,1,0,0)"><svg width="206" viewBox="3.25 -35.2 29.5 35.400000000000006" height="247.2" data-palette-color="#d5cfd8"><path d="M18-35.2L18-35.2Q32.75-35.2 32.75-17.4L32.75-17.4Q32.75-9.25 28.55-4.53 24.35 0.2 18 0.2L18 0.2Q11.25 0.2 7.55-3.5L7.55-3.5Q3.25-7.9 3.25-16.75 3.25-25.6 7.48-30.4 11.7-35.2 18-35.2ZM10-5.9L10-5.9Q12.75-2.8 18-2.8L18-2.8Q22.95-2.8 26.15-6.73 29.35-10.65 29.35-18 29.35-25.35 26-29.05L26-29.05Q23.2-32.2 18-32.2L18-32.2Q13.1-32.2 9.88-28.25 6.65-24.3 6.65-16.93 6.65-9.55 10-5.9Z" opacity="1" transform="matrix(1,0,0,1,0,0)" fill="#d5cfd8" class="wordmark-text-0" data-fill-palette-color="primary" id="text-0"></path></svg></g></svg></g></svg></g></svg></g><g transform="matrix(1,0,0,1,264.3579872,59.946)"><svg viewBox="0 0 127.30799999999999 127.30799999999999" height="127.30799999999999" width="127.30799999999999"><g data-palette-color="#e8e8e8"><rect width="34.79752" height="127.30799999999999" fill="#e8e8e8" stroke="transparent" data-fill-palette-color="accent" x="0" fill-opacity="1"></rect><rect width="34.79752" height="127.30799999999999" fill="#e8e8e8" stroke="transparent" data-fill-palette-color="accent" x="42.436" fill-opacity="0.75"></rect><rect width="34.79752" height="127.30799999999999" fill="#e8e8e8" stroke="transparent" data-fill-palette-color="accent" x="84.872" fill-opacity="0.5"></rect></g></svg></g></svg></g><defs></defs></svg><rect width="391.6659872" height="247.2" fill="none" stroke="none" visibility="hidden"></rect></g></svg></g></svg>